
<svg version="1.1" baseProfile="full" xmlns="http://www.w3.org/2000/svg" xmlns:xlink="http://www.w3.org/1999/xlink" viewbox="0 0 666 666" width="666" height="666">
  <style>
		.outline {
			fill: #FCFCFC;
		}

		.heart, .orbits {
			fill: rgb(165, 24, 201);
		}

		.whiteout {
			fill: #FCFCFC;
			stroke: #FCFCFC;
			stroke-width: 9.375;
		}

		.strike {
			stroke: #111;
			stroke-width: 9.375;
		}

		.charm {
			fill: #111;
		}
  </style>
  <g transform="rotate(-90, 333, 333) translate(333, 333)">
		<!-- TODO: Remove me -->
    <circle class="outline" r="300" />

    <!-- <circle class="bigs" r="75" cx="225" cy="0" />
<circle class="bigs" r="75" cx="1.3777276490407723e-14" cy="225" />
<circle class="bigs" r="75" cx="-225" cy="2.7554552980815446e-14" />
<circle class="bigs" r="75" cx="-4.133182947122317e-14" cy="-225" /> -->
    <!--<circle class="inner-circle" r="225" />-->
    <!-- <circle class="smalls" r="18.75" cx="198.8737822087165" cy="198.87378220871648" />
<circle class="smalls" r="18.75" cx="107.62971535268152" cy="259.8411185187994" />
<circle class="smalls" r="18.75" cx="1.7221595613009655e-14" cy="281.25" />
<circle class="smalls" r="18.75" cx="-107.62971535268149" cy="259.8411185187994" />
<circle class="smalls" r="18.75" cx="-198.87378220871648" cy="198.8737822087165" />
<circle class="smalls" r="18.75" cx="-259.8411185187994" cy="107.62971535268153" />
<circle class="smalls" r="18.75" cx="-281.25" cy="3.444319122601931e-14" />
<circle class="smalls" r="18.75" cx="-259.8411185187994" cy="-107.62971535268147" />
<circle class="smalls" r="18.75" cx="-198.87378220871653" cy="-198.87378220871648" />
<circle class="smalls" r="18.75" cx="-107.62971535268143" cy="-259.8411185187994" />
<circle class="smalls" r="18.75" cx="-5.166478683902896e-14" cy="-281.25" />
<circle class="smalls" r="18.75" cx="107.62971535268156" cy="-259.84111851879936" />
<circle class="smalls" r="18.75" cx="198.87378220871645" cy="-198.87378220871653" />
<circle class="smalls" r="18.75" cx="259.8411185187994" cy="-107.62971535268144" />
<circle class="smalls" r="18.75" cx="281.25" cy="-6.888638245203862e-14" />
<circle class="smalls" r="18.75" cx="259.8411185187994" cy="107.62971535268154" /> -->

    <circle class="heart" r="75" />
    <circle class="orbits" r="37.5" cx="187.5" cy="0" />
<circle class="orbits" r="37.5" cx="132.58252147247768" cy="132.58252147247765" />
<circle class="orbits" r="37.5" cx="1.1481063742006436e-14" cy="187.5" />
<circle class="orbits" r="37.5" cx="-132.58252147247765" cy="132.58252147247768" />
<circle class="orbits" r="37.5" cx="-187.5" cy="2.2962127484012872e-14" />
<circle class="orbits" r="37.5" cx="-132.58252147247768" cy="-132.58252147247765" />
<circle class="orbits" r="37.5" cx="-3.4443191226019305e-14" cy="-187.5" />
<circle class="orbits" r="37.5" cx="132.58252147247762" cy="-132.58252147247768" />

		<!-- White out some o the orbits -->
    <circle class="whiteout" r="39.5" cx="132.58252147247768" cy="132.58252147247765" />
    <circle class="whiteout" r="39.5" cx="-187.5" cy="2.2962127484012872e-14" />
    <circle class="whiteout" r="39.5" cx="-3.4443191226019305e-14" cy="-187.5" />

		<!-- Add some outer orbits -->
    <circle class="orbits" r="37.5" cx="185.61553006146875" cy="185.61553006146872" />
    <circle class="orbits" r="37.5" cx="-262.5" cy="3.214697847761802e-14" />
    <circle class="orbits" r="37.5" cx="-4.822046771642703e-14" cy="-262.5" />

		<line class="strike" x1="300" y1="0" x2="-300" y2="3.6739403974420595e-14" />
		<line class="strike" x1="187.5" y1="0" x2="-132.58252147247765" y2="132.58252147247768" />
		<line class="strike" x1="187.5" y1="0" x2="-132.58252147247768" y2="-132.58252147247765" />

		<circle class="charm" r="18.75" cx="185.61553006146875" cy="185.61553006146872" />
    <circle class="charm" r="18.75" cx="-262.5" cy="3.214697847761802e-14" />
    <circle class="charm" r="18.75" cx="-4.822046771642703e-14" cy="-262.5" />
  </g>
</svg>

